# xmcd
#
# Track frame offsets:
#	150
#	25817
#	62150
#	85475
#	116892
#	148697
#
# Disc length: 2338 seconds
#
# Revision: 0
# Processed by: cddbd v1.5.2PL0 Copyright (c) Steve Scherf et al.
# Submitted via: EasyCDDAExtractor 16.0.9.1
#
DISCID=54092006
DTITLE=George Benson - N-029 George Benson Breezin'
DYEAR=1987
DGENRE=
TTITLE0=Breezin'
TTITLE1=This Masquerade
TTITLE2=Six to Four
TTITLE3=Affirmation
TTITLE4=So This Is Love?
TTITLE5=Lady
EXTD=
EXTT0=
EXTT1=
EXTT2=
EXTT3=
EXTT4=
EXTT5=
PLAYORDER=
